<mxfile host="app.diagrams.net" modified="2023-06-16T19:36:05.118Z" agent="Mozilla/5.0 (Windows NT 10.0; Win64; x64) AppleWebKit/537.36 (KHTML, like Gecko) Chrome/114.0.0.0 Safari/537.36" etag="Js2Q1lKapGL1iniw5uQ8" version="21.3.8" type="device">
  <diagram name="Page-1" id="4SMN1_fh-NqzXnlKV4R9">
    <mxGraphModel dx="2294" dy="1922" grid="1" gridSize="10" guides="1" tooltips="1" connect="1" arrows="1" fold="1" page="1" pageScale="1" pageWidth="850" pageHeight="1100" math="0" shadow="0">
      <root>
        <mxCell id="0" />
        <mxCell id="1" parent="0" />
        <mxCell id="C-Uqjv5LbJ8WhraiU_b0-32" style="edgeStyle=orthogonalEdgeStyle;rounded=0;orthogonalLoop=1;jettySize=auto;html=1;entryX=0;entryY=0.5;entryDx=0;entryDy=0;" edge="1" parent="1" source="C-Uqjv5LbJ8WhraiU_b0-11" target="C-Uqjv5LbJ8WhraiU_b0-16">
          <mxGeometry relative="1" as="geometry" />
        </mxCell>
        <mxCell id="C-Uqjv5LbJ8WhraiU_b0-11" value="&lt;br&gt;Child growth failure" style="rounded=1;whiteSpace=wrap;html=1;horizontal=1;verticalAlign=top;" vertex="1" parent="1">
          <mxGeometry x="340" y="70" width="310" height="220" as="geometry" />
        </mxCell>
        <mxCell id="C-Uqjv5LbJ8WhraiU_b0-8" style="rounded=0;orthogonalLoop=1;jettySize=auto;html=1;entryX=0;entryY=0.25;entryDx=0;entryDy=0;exitX=1;exitY=0.75;exitDx=0;exitDy=0;" edge="1" parent="1" source="C-Uqjv5LbJ8WhraiU_b0-1" target="C-Uqjv5LbJ8WhraiU_b0-3">
          <mxGeometry relative="1" as="geometry" />
        </mxCell>
        <mxCell id="C-Uqjv5LbJ8WhraiU_b0-29" style="rounded=0;orthogonalLoop=1;jettySize=auto;html=1;entryX=0;entryY=0.25;entryDx=0;entryDy=0;" edge="1" parent="1" target="C-Uqjv5LbJ8WhraiU_b0-2">
          <mxGeometry relative="1" as="geometry">
            <mxPoint x="290" y="105" as="sourcePoint" />
          </mxGeometry>
        </mxCell>
        <mxCell id="C-Uqjv5LbJ8WhraiU_b0-35" style="edgeStyle=orthogonalEdgeStyle;rounded=0;orthogonalLoop=1;jettySize=auto;html=1;entryX=0.5;entryY=0;entryDx=0;entryDy=0;" edge="1" parent="1" source="C-Uqjv5LbJ8WhraiU_b0-1" target="C-Uqjv5LbJ8WhraiU_b0-33">
          <mxGeometry relative="1" as="geometry">
            <Array as="points">
              <mxPoint x="230" y="30" />
              <mxPoint x="1060" y="30" />
            </Array>
          </mxGeometry>
        </mxCell>
        <mxCell id="C-Uqjv5LbJ8WhraiU_b0-48" style="edgeStyle=orthogonalEdgeStyle;rounded=0;orthogonalLoop=1;jettySize=auto;html=1;exitX=1;exitY=0.25;exitDx=0;exitDy=0;entryX=0.008;entryY=0.094;entryDx=0;entryDy=0;entryPerimeter=0;dashed=1;endArrow=none;endFill=0;" edge="1" parent="1" source="C-Uqjv5LbJ8WhraiU_b0-1" target="C-Uqjv5LbJ8WhraiU_b0-11">
          <mxGeometry relative="1" as="geometry" />
        </mxCell>
        <mxCell id="C-Uqjv5LbJ8WhraiU_b0-1" value="LBWSG exposure" style="rounded=1;whiteSpace=wrap;html=1;" vertex="1" parent="1">
          <mxGeometry x="170" y="75" width="120" height="60" as="geometry" />
        </mxCell>
        <mxCell id="C-Uqjv5LbJ8WhraiU_b0-10" style="edgeStyle=orthogonalEdgeStyle;rounded=0;orthogonalLoop=1;jettySize=auto;html=1;entryX=0;entryY=0.5;entryDx=0;entryDy=0;" edge="1" parent="1" source="C-Uqjv5LbJ8WhraiU_b0-2" target="C-Uqjv5LbJ8WhraiU_b0-4">
          <mxGeometry relative="1" as="geometry" />
        </mxCell>
        <mxCell id="C-Uqjv5LbJ8WhraiU_b0-2" value="Stunting" style="rounded=1;whiteSpace=wrap;html=1;" vertex="1" parent="1">
          <mxGeometry x="360" y="120" width="120" height="60" as="geometry" />
        </mxCell>
        <mxCell id="C-Uqjv5LbJ8WhraiU_b0-9" value="" style="edgeStyle=orthogonalEdgeStyle;rounded=0;orthogonalLoop=1;jettySize=auto;html=1;" edge="1" parent="1" source="C-Uqjv5LbJ8WhraiU_b0-3" target="C-Uqjv5LbJ8WhraiU_b0-4">
          <mxGeometry relative="1" as="geometry" />
        </mxCell>
        <mxCell id="C-Uqjv5LbJ8WhraiU_b0-36" style="edgeStyle=orthogonalEdgeStyle;rounded=0;orthogonalLoop=1;jettySize=auto;html=1;entryX=0.5;entryY=1;entryDx=0;entryDy=0;" edge="1" parent="1" source="C-Uqjv5LbJ8WhraiU_b0-3" target="C-Uqjv5LbJ8WhraiU_b0-33">
          <mxGeometry relative="1" as="geometry">
            <Array as="points">
              <mxPoint x="420" y="320" />
              <mxPoint x="1060" y="320" />
            </Array>
          </mxGeometry>
        </mxCell>
        <mxCell id="C-Uqjv5LbJ8WhraiU_b0-3" value="Wasting/PEM" style="rounded=1;whiteSpace=wrap;html=1;" vertex="1" parent="1">
          <mxGeometry x="360" y="190" width="120" height="80" as="geometry" />
        </mxCell>
        <mxCell id="C-Uqjv5LbJ8WhraiU_b0-4" value="Underweight" style="rounded=1;whiteSpace=wrap;html=1;" vertex="1" parent="1">
          <mxGeometry x="520" y="160" width="120" height="60" as="geometry" />
        </mxCell>
        <mxCell id="C-Uqjv5LbJ8WhraiU_b0-37" value="" style="rounded=0;orthogonalLoop=1;jettySize=auto;html=1;entryX=0;entryY=0.5;entryDx=0;entryDy=0;" edge="1" parent="1" target="C-Uqjv5LbJ8WhraiU_b0-1">
          <mxGeometry relative="1" as="geometry">
            <mxPoint x="80" y="68" as="sourcePoint" />
          </mxGeometry>
        </mxCell>
        <mxCell id="C-Uqjv5LbJ8WhraiU_b0-5" value="Pregnancy simulation" style="rounded=1;whiteSpace=wrap;html=1;" vertex="1" parent="1">
          <mxGeometry x="-40" y="37.5" width="120" height="60" as="geometry" />
        </mxCell>
        <mxCell id="C-Uqjv5LbJ8WhraiU_b0-24" style="rounded=0;orthogonalLoop=1;jettySize=auto;html=1;entryX=0;entryY=0.5;entryDx=0;entryDy=0;exitX=1;exitY=0.5;exitDx=0;exitDy=0;" edge="1" parent="1" source="C-Uqjv5LbJ8WhraiU_b0-21" target="C-Uqjv5LbJ8WhraiU_b0-3">
          <mxGeometry relative="1" as="geometry" />
        </mxCell>
        <mxCell id="C-Uqjv5LbJ8WhraiU_b0-21" value="SAM treatment" style="rounded=1;whiteSpace=wrap;html=1;" vertex="1" parent="1">
          <mxGeometry x="-40" y="202.5" width="120" height="60" as="geometry" />
        </mxCell>
        <mxCell id="C-Uqjv5LbJ8WhraiU_b0-25" style="rounded=0;orthogonalLoop=1;jettySize=auto;html=1;entryX=0.01;entryY=0.649;entryDx=0;entryDy=0;entryPerimeter=0;exitX=1;exitY=0.5;exitDx=0;exitDy=0;" edge="1" parent="1" source="C-Uqjv5LbJ8WhraiU_b0-23" target="C-Uqjv5LbJ8WhraiU_b0-3">
          <mxGeometry relative="1" as="geometry" />
        </mxCell>
        <mxCell id="C-Uqjv5LbJ8WhraiU_b0-23" value="MAM treatment" style="rounded=1;whiteSpace=wrap;html=1;" vertex="1" parent="1">
          <mxGeometry x="-40" y="282.5" width="120" height="60" as="geometry" />
        </mxCell>
        <mxCell id="C-Uqjv5LbJ8WhraiU_b0-27" style="rounded=0;orthogonalLoop=1;jettySize=auto;html=1;entryX=0;entryY=0.75;entryDx=0;entryDy=0;" edge="1" parent="1" source="C-Uqjv5LbJ8WhraiU_b0-26" target="C-Uqjv5LbJ8WhraiU_b0-2">
          <mxGeometry relative="1" as="geometry" />
        </mxCell>
        <mxCell id="C-Uqjv5LbJ8WhraiU_b0-28" style="rounded=0;orthogonalLoop=1;jettySize=auto;html=1;exitX=1;exitY=0.75;exitDx=0;exitDy=0;" edge="1" parent="1" source="C-Uqjv5LbJ8WhraiU_b0-26">
          <mxGeometry relative="1" as="geometry">
            <mxPoint x="360" y="220" as="targetPoint" />
          </mxGeometry>
        </mxCell>
        <mxCell id="C-Uqjv5LbJ8WhraiU_b0-26" value="SQLNS" style="rounded=1;whiteSpace=wrap;html=1;" vertex="1" parent="1">
          <mxGeometry x="-40" y="122.5" width="120" height="60" as="geometry" />
        </mxCell>
        <mxCell id="C-Uqjv5LbJ8WhraiU_b0-31" value="" style="group" vertex="1" connectable="0" parent="1">
          <mxGeometry x="680" y="75" width="290" height="210" as="geometry" />
        </mxCell>
        <mxCell id="C-Uqjv5LbJ8WhraiU_b0-16" value="&lt;br&gt;Infectious diseases" style="rounded=1;whiteSpace=wrap;html=1;horizontal=1;verticalAlign=top;" vertex="1" parent="C-Uqjv5LbJ8WhraiU_b0-31">
          <mxGeometry width="290" height="210" as="geometry" />
        </mxCell>
        <mxCell id="C-Uqjv5LbJ8WhraiU_b0-12" value="Diarrheal diseases" style="rounded=1;whiteSpace=wrap;html=1;" vertex="1" parent="C-Uqjv5LbJ8WhraiU_b0-31">
          <mxGeometry x="20" y="60" width="120" height="60" as="geometry" />
        </mxCell>
        <mxCell id="C-Uqjv5LbJ8WhraiU_b0-13" value="LRI" style="rounded=1;whiteSpace=wrap;html=1;" vertex="1" parent="C-Uqjv5LbJ8WhraiU_b0-31">
          <mxGeometry x="150" y="60" width="120" height="60" as="geometry" />
        </mxCell>
        <mxCell id="C-Uqjv5LbJ8WhraiU_b0-14" value="Measles" style="rounded=1;whiteSpace=wrap;html=1;" vertex="1" parent="C-Uqjv5LbJ8WhraiU_b0-31">
          <mxGeometry x="20" y="130" width="120" height="60" as="geometry" />
        </mxCell>
        <mxCell id="C-Uqjv5LbJ8WhraiU_b0-15" value="Malaria" style="rounded=1;whiteSpace=wrap;html=1;" vertex="1" parent="C-Uqjv5LbJ8WhraiU_b0-31">
          <mxGeometry x="150" y="130" width="120" height="60" as="geometry" />
        </mxCell>
        <mxCell id="C-Uqjv5LbJ8WhraiU_b0-33" value="Morbidity and mortality" style="rounded=1;whiteSpace=wrap;html=1;" vertex="1" parent="1">
          <mxGeometry x="1000" y="150" width="120" height="60" as="geometry" />
        </mxCell>
        <mxCell id="C-Uqjv5LbJ8WhraiU_b0-34" style="edgeStyle=orthogonalEdgeStyle;rounded=0;orthogonalLoop=1;jettySize=auto;html=1;entryX=0;entryY=0.5;entryDx=0;entryDy=0;" edge="1" parent="1" source="C-Uqjv5LbJ8WhraiU_b0-16" target="C-Uqjv5LbJ8WhraiU_b0-33">
          <mxGeometry relative="1" as="geometry" />
        </mxCell>
        <mxCell id="C-Uqjv5LbJ8WhraiU_b0-39" value="&lt;b&gt;Interventions&lt;/b&gt;" style="text;html=1;strokeColor=none;fillColor=none;align=center;verticalAlign=middle;whiteSpace=wrap;rounded=0;" vertex="1" parent="1">
          <mxGeometry x="-10" y="-50" width="60" height="30" as="geometry" />
        </mxCell>
        <mxCell id="C-Uqjv5LbJ8WhraiU_b0-40" value="&lt;b&gt;Risk factors&lt;/b&gt;" style="text;html=1;strokeColor=none;fillColor=none;align=center;verticalAlign=middle;whiteSpace=wrap;rounded=0;" vertex="1" parent="1">
          <mxGeometry x="310" y="-50" width="90" height="30" as="geometry" />
        </mxCell>
        <mxCell id="C-Uqjv5LbJ8WhraiU_b0-41" value="&lt;b&gt;Causes&lt;/b&gt;" style="text;html=1;strokeColor=none;fillColor=none;align=center;verticalAlign=middle;whiteSpace=wrap;rounded=0;" vertex="1" parent="1">
          <mxGeometry x="760" y="-50" width="90" height="30" as="geometry" />
        </mxCell>
        <mxCell id="C-Uqjv5LbJ8WhraiU_b0-42" value="&lt;b&gt;Outcomes&lt;/b&gt;" style="text;html=1;strokeColor=none;fillColor=none;align=center;verticalAlign=middle;whiteSpace=wrap;rounded=0;" vertex="1" parent="1">
          <mxGeometry x="1015" y="-50" width="90" height="30" as="geometry" />
        </mxCell>
        <mxCell id="C-Uqjv5LbJ8WhraiU_b0-45" style="edgeStyle=orthogonalEdgeStyle;rounded=0;orthogonalLoop=1;jettySize=auto;html=1;entryX=0.5;entryY=1;entryDx=0;entryDy=0;fillColor=#f5f5f5;strokeColor=#666666;dashed=1;endArrow=none;endFill=0;" edge="1" parent="1" source="C-Uqjv5LbJ8WhraiU_b0-44" target="C-Uqjv5LbJ8WhraiU_b0-11">
          <mxGeometry relative="1" as="geometry">
            <Array as="points">
              <mxPoint x="495" y="380" />
            </Array>
          </mxGeometry>
        </mxCell>
        <mxCell id="C-Uqjv5LbJ8WhraiU_b0-46" style="edgeStyle=orthogonalEdgeStyle;rounded=0;orthogonalLoop=1;jettySize=auto;html=1;entryX=0;entryY=0.5;entryDx=0;entryDy=0;exitX=0;exitY=0.75;exitDx=0;exitDy=0;fillColor=#f5f5f5;strokeColor=#666666;" edge="1" parent="1" source="C-Uqjv5LbJ8WhraiU_b0-44" target="C-Uqjv5LbJ8WhraiU_b0-26">
          <mxGeometry relative="1" as="geometry">
            <Array as="points">
              <mxPoint x="220" y="400" />
              <mxPoint x="-80" y="400" />
              <mxPoint x="-80" y="153" />
            </Array>
          </mxGeometry>
        </mxCell>
        <mxCell id="C-Uqjv5LbJ8WhraiU_b0-47" style="edgeStyle=orthogonalEdgeStyle;rounded=0;orthogonalLoop=1;jettySize=auto;html=1;entryX=0;entryY=0.5;entryDx=0;entryDy=0;fillColor=#f5f5f5;strokeColor=#666666;" edge="1" parent="1" source="C-Uqjv5LbJ8WhraiU_b0-44" target="C-Uqjv5LbJ8WhraiU_b0-23">
          <mxGeometry relative="1" as="geometry" />
        </mxCell>
        <mxCell id="C-Uqjv5LbJ8WhraiU_b0-44" value="Target area" style="rounded=1;whiteSpace=wrap;html=1;fillColor=#f5f5f5;fontColor=#333333;strokeColor=#666666;" vertex="1" parent="1">
          <mxGeometry x="220" y="350" width="120" height="60" as="geometry" />
        </mxCell>
      </root>
    </mxGraphModel>
  </diagram>
</mxfile>
